<svg width="320" height="320" viewBox="0 0 320 320" fill="none" xmlns="http://www.w3.org/2000/svg">
  <rect width="320" height="320" fill="#F7F7F2"/>
  <g transform="translate(22 20)">
    <g fill="#D8A52E">
      <ellipse cx="42" cy="190" rx="6" ry="13" transform="rotate(-38 42 190)"/>
      <ellipse cx="31" cy="171" rx="6" ry="13" transform="rotate(-50 31 171)"/>
      <ellipse cx="24" cy="150" rx="6" ry="13" transform="rotate(-61 24 150)"/>
      <ellipse cx="19" cy="128" rx="6" ry="13" transform="rotate(-73 19 128)"/>
      <ellipse cx="19" cy="106" rx="6" ry="13" transform="rotate(-86 19 106)"/>
      <ellipse cx="23" cy="84" rx="6" ry="13" transform="rotate(-100 23 84)"/>
      <ellipse cx="31" cy="63" rx="6" ry="13" transform="rotate(-113 31 63)"/>
      <ellipse cx="44" cy="44" rx="6" ry="13" transform="rotate(-126 44 44)"/>
      <ellipse cx="60" cy="28" rx="6" ry="13" transform="rotate(-140 60 28)"/>
      <ellipse cx="79" cy="16" rx="6" ry="13" transform="rotate(-153 79 16)"/>
      <ellipse cx="100" cy="8" rx="6" ry="13" transform="rotate(-166 100 8)"/>
    </g>
    <g fill="#D8A52E" transform="translate(276 0) scale(-1 1)">
      <ellipse cx="42" cy="190" rx="6" ry="13" transform="rotate(-38 42 190)"/>
      <ellipse cx="31" cy="171" rx="6" ry="13" transform="rotate(-50 31 171)"/>
      <ellipse cx="24" cy="150" rx="6" ry="13" transform="rotate(-61 24 150)"/>
      <ellipse cx="19" cy="128" rx="6" ry="13" transform="rotate(-73 19 128)"/>
      <ellipse cx="19" cy="106" rx="6" ry="13" transform="rotate(-86 19 106)"/>
      <ellipse cx="23" cy="84" rx="6" ry="13" transform="rotate(-100 23 84)"/>
      <ellipse cx="31" cy="63" rx="6" ry="13" transform="rotate(-113 31 63)"/>
      <ellipse cx="44" cy="44" rx="6" ry="13" transform="rotate(-126 44 44)"/>
      <ellipse cx="60" cy="28" rx="6" ry="13" transform="rotate(-140 60 28)"/>
      <ellipse cx="79" cy="16" rx="6" ry="13" transform="rotate(-153 79 16)"/>
      <ellipse cx="100" cy="8" rx="6" ry="13" transform="rotate(-166 100 8)"/>
    </g>
    <circle cx="138" cy="112" r="82" fill="#E4B43B"/>
    <circle cx="138" cy="112" r="68" fill="#F1C44E"/>
    <circle cx="138" cy="112" r="58" fill="#0D3B73"/>
    <circle cx="138" cy="112" r="56" stroke="#113A67" stroke-width="2"/>
    <g fill="#F4C94C">
      <path d="M138 47l4.7 9.5 10.5 1.5-7.6 7.4 1.8 10.4-9.4-5-9.4 5 1.8-10.4-7.6-7.4 10.5-1.5L138 47z"/>
      <path d="M104 56l3.8 7.8 8.6 1.2-6.2 6.1 1.5 8.5-7.7-4.1-7.7 4.1 1.5-8.5-6.2-6.1 8.6-1.2 3.8-7.8z"/>
      <path d="M172 56l3.8 7.8 8.6 1.2-6.2 6.1 1.5 8.5-7.7-4.1-7.7 4.1 1.5-8.5-6.2-6.1 8.6-1.2 3.8-7.8z"/>
    </g>
    <text x="138" y="118" text-anchor="middle" fill="#F8CF54" font-family="Arial, sans-serif" font-size="34" font-weight="700" letter-spacing="2">BEST</text>
    <text x="138" y="154" text-anchor="middle" fill="#F8CF54" font-family="Arial, sans-serif" font-size="18" font-weight="700" letter-spacing="4">AWARD</text>
  </g>
  <text x="160" y="286" text-anchor="middle" fill="#111111" font-family="Arial, sans-serif" font-size="28" font-weight="700">Travel Guide 2026</text>
</svg>
